<?xml version="1.0" standalone="no"?>
<!DOCTYPE svg PUBLIC "-//W3C//DTD SVG 1.1//EN" "http://www.w3.org/Graphics/SVG/1.1/DTD/svg11.dtd"><svg xmlns="http://www.w3.org/2000/svg" style="background-color:#FFF" width="108" height="33"><path stroke="black" fill="none" stroke-width="1" d="M15.2, 0.4L17.344, 0.466L19.375, 0.85L20.994, 1.609L21.555, 2.147L21.9, 2.8L22.002, 4.063L21.613, 5.420L20.809, 6.827L19.675, 8.238L18.286, 9.606L16.725, 10.886L13.4, 13L12.666, 13.363L12.1, 13.575L11.4, 13.7L11.15, 13.525L11.2, 13.2L11.439, 12.905L11.838, 12.488L13, 11.4L14.717, 9.986L16.127, 8.675L17.238, 7.477L18.063, 6.4L18.611, 5.455L18.892, 4.65L18.919, 3.995L18.7, 3.5L17.920, 3.002L16.587, 2.587L14.861, 2.305L12.9, 2.2L12.195, 2.220L11.313, 2.212L10.523, 2.073L10.1, 1.7L10.180, 1.505L10.475, 1.3L11.6, 0.9L13.25, 0.575L15.2, 0.4"/><path stroke="black" fill="none" stroke-width="1" d="M9.4, 15.2L11.266, 15.223L13.15, 15.463L14.884, 15.945L16.3, 16.7L16.85, 17.255L17.25, 17.988L17.425, 18.852L17.3, 19.8L16.837, 21.222L16.111, 22.695L15.102, 24.2L13.787, 25.712L12.15, 27.211L10.170, 28.673L7.827, 30.077L5.1, 31.4L3.352, 32.094L1.913, 32.525L0.867, 32.694L0.3, 32.6L0.220, 32.392L0.263, 32.023L0.6, 30.988L1.087, 29.858L1.5, 29L3.538, 25.137L5.8, 21.5L6.825, 19.988L7.403, 19.433L8, 19.3L8.270, 19.623L8.137, 20.313L7.3, 22L6.897, 22.764L6.402, 23.722L5.362, 25.875L4.934, 26.897L4.642, 27.766L4.545, 28.395L4.7, 28.7L5.112, 28.731L5.656, 28.613L7.05, 27.975L8.686, 26.906L10.375, 25.525L11.923, 23.945L13.137, 22.288L13.828, 20.667L13.916, 19.906L13.8, 19.2L13.439, 18.634L12.839, 18.202L11.137, 17.663L9.117, 17.442L7.2, 17.4L6.203, 17.433L5.075, 17.438L4.134, 17.273L3.834, 17.084L3.7, 16.8L3.827, 16.534L4.239, 16.269L5.688, 15.775L7.567, 15.394L9.4, 15.2"/><path stroke="black" fill="none" stroke-width="1" d="M27.8, 11.2L29.663, 11.637L30.317, 11.917L30.7, 12.3L30.613, 12.705L30.075, 12.912L28.7, 13L26.156, 13.078L24.25, 13.25L23.019, 13.647L22.669, 13.970L22.5, 14.4L22.734, 15.627L23.475, 16.938L24.553, 18.380L25.8, 20L26.998, 21.573L28.038, 23.137L28.683, 24.683L28.7, 26.2L28.367, 27.019L27.839, 27.681L26.313, 28.6L24.355, 29.069L22.2, 29.2L20.216, 29.134L18.4, 28.975L16.884, 28.778L15.8, 28.6L15.042, 28.330L14.762, 28.012L14.802, 27.714L15, 27.5L15.616, 27.383L16.7, 27.313L19.3, 27.2L20.655, 27.069L22.413, 26.9L24.039, 26.581L24.636, 26.331L25, 26L25.15, 25.514L25.098, 24.959L24.512, 23.675L23.495, 22.203L22.3, 20.6L20.803, 18.584L19.55, 16.625L19.127, 15.684L18.897, 14.778L18.906, 13.914L19.2, 13.1L19.927, 12.280L20.867, 11.678L21.966, 11.269L23.163, 11.025L25.627, 10.934L27.8, 11.2"/></svg>